<svg xmlns="http://www.w3.org/2000/svg" width="176" height="176" viewBox="0 0 176 176" fill="none">
<g clip-path="url(#clip0_4897_3962)">
<path d="M87.9989 158.998C127.211 158.998 158.998 127.211 158.998 87.9989C158.998 48.7873 127.211 17 87.9989 17C48.7873 17 17 48.7873 17 87.9989C17 127.211 48.7873 158.998 87.9989 158.998Z" fill="#C2DBEA"/>
<path opacity="0.3" d="M88.5 136C108.658 136 125 134.433 125 132.5C125 130.567 108.658 129 88.5 129C68.3416 129 52 130.567 52 132.5C52 134.433 68.3416 136 88.5 136Z" fill="#112B43"/>
<g clip-path="url(#clip1_4897_3962)">
<path d="M60.7137 114.521H53.1887V133.333H60.7137V114.521Z" fill="#051039"/>
<path d="M123.35 114.521H115.825V133.333H123.35V114.521Z" fill="#051039"/>
<path d="M130 46H46V86H130V46Z" fill="#00A1DE"/>
<path d="M79.1789 68.7793H59.5118C55.6531 68.7793 52.525 71.9074 52.525 75.7661V83.9261C52.525 87.7849 55.6531 90.913 59.5118 90.913H79.1789C83.0376 90.913 86.1657 87.7849 86.1657 83.9261V75.7661C86.1657 71.9074 83.0376 68.7793 79.1789 68.7793Z" fill="#EBF3F8"/>
<path d="M117.026 68.7793H97.3593C93.5006 68.7793 90.3725 71.9074 90.3725 75.7661V83.9261C90.3725 87.7849 93.5006 90.913 97.3593 90.913H117.026C120.885 90.913 124.013 87.7849 124.013 83.9261V75.7661C124.013 71.9074 120.885 68.7793 117.026 68.7793Z" fill="#EBF3F8"/>
<path d="M138.293 92.4625C138.293 87.7489 134.473 83.9263 129.756 83.9263H46.5363C41.8226 83.9263 38 87.7489 38 92.4625V93.4972H138.293V92.4625Z" fill="#072B45"/>
<path d="M46.5363 120.572H129.759C134.473 120.572 138.295 116.749 138.295 112.036V100.429H38V112.036C38 116.749 41.8226 120.572 46.5363 120.572Z" fill="#00A1DE"/>
<path d="M138.293 93.4946H38V100.429L138.293 100.429V93.4946Z" fill="#00A1DE"/>
</g>
</g>
<defs>
<clipPath id="clip0_4897_3962">
<rect width="142" height="142" fill="white" transform="translate(17 17)"/>
</clipPath>
<clipPath id="clip1_4897_3962">
<rect width="100.293" height="100" fill="white" transform="translate(38 42)"/>
</clipPath>
</defs>
</svg>