<svg xmlns="http://www.w3.org/2000/svg" width="176" height="176" viewBox="0 0 176 176" fill="none">
<mask id="mask0_3048_2848" style="mask-type:alpha" maskUnits="userSpaceOnUse" x="0" y="0" width="176" height="176">
<rect width="176" height="176" fill="#D9D9D9"/>
</mask>
<g mask="url(#mask0_3048_2848)">
<rect width="142" height="142" rx="71" transform="matrix(1 0 0 -1 17.5 159)" fill="#C2DBEA"/>
<path opacity="0.3" d="M92.5 130C119.286 130 141 129.105 141 128C141 126.895 119.286 126 92.5 126C65.7142 126 44 126.895 44 128C44 129.105 65.7142 130 92.5 130Z" fill="#072B45"/>
<path d="M33.9317 115.35H156.362C160.419 115.35 163.144 111.19 161.526 107.47L154.179 90.5857C153.284 88.5308 151.254 87.1994 149.014 87.1994H138.872C137.008 87.1994 135.265 86.2774 134.217 84.7375L118.934 62.2944C117.884 60.7545 116.143 59.8325 114.279 59.8325H41.988C39.609 59.8325 37.4863 61.3272 36.685 63.5655L28.3297 86.8929C28.1036 87.5285 27.9906 88.1992 28.0006 88.8724L28.297 109.798C28.3397 112.878 30.8493 115.35 33.9292 115.35H33.9317Z" fill="#00A1DE"/>
<path d="M128.764 89.0056C128.673 88.8825 128.58 88.7619 128.492 88.6338L114.957 68.758C114.103 67.5045 112.686 66.7559 111.169 66.7559H86.0855C85.0178 66.7559 84.1537 67.6225 84.1537 68.6877V87.0712C84.1537 88.1389 85.0203 89.003 86.0855 89.003H128.761L128.764 89.0056Z" fill="#EBF3F8"/>
<path d="M46.1229 66.7559C44.1886 66.7559 42.4603 67.9717 41.8096 69.793L36.1976 85.4635C35.5796 87.1893 36.8583 89.0056 38.6921 89.0056H77.489C78.5567 89.0056 79.4209 88.1389 79.4209 87.0737V68.6902C79.4209 67.6225 78.5542 66.7584 77.489 66.7584H46.1254L46.1229 66.7559Z" fill="#EBF3F8"/>
<path d="M55.4629 128.468C61.9407 128.468 67.1919 123.217 67.1919 116.739C67.1919 110.262 61.9407 105.01 55.4629 105.01C48.9852 105.01 43.7339 110.262 43.7339 116.739C43.7339 123.217 48.9852 128.468 55.4629 128.468Z" fill="#072B45"/>
<path d="M55.4629 121.775C52.687 121.775 50.4261 119.517 50.4261 116.738C50.4261 113.96 52.6845 111.702 55.4629 111.702C58.2413 111.702 60.4997 113.96 60.4997 116.738C60.4997 119.517 58.2413 121.775 55.4629 121.775Z" fill="#C2DBEA"/>
<path d="M130.788 128.468C137.266 128.468 142.517 123.217 142.517 116.739C142.517 110.262 137.266 105.01 130.788 105.01C124.311 105.01 119.059 110.262 119.059 116.739C119.059 123.217 124.311 128.468 130.788 128.468Z" fill="#072B45"/>
<path d="M130.788 121.776C128.012 121.776 125.752 119.518 125.752 116.739C125.752 113.961 128.01 111.703 130.788 111.703C133.567 111.703 135.825 113.961 135.825 116.739C135.825 119.518 133.567 121.776 130.788 121.776Z" fill="#C2DBEA"/>
<path d="M77.7905 92.5654H69.7292V94.5198H77.7905V92.5654Z" fill="#072B45"/>
<path d="M121.906 92.5654H113.844V94.5198H121.906V92.5654Z" fill="#072B45"/>
<rect x="119" y="34.1689" width="24" height="30.366" rx="4" transform="rotate(-12.4372 119 34.1689)" fill="#E37222"/>
<path d="M131.939 28.0591C132.605 28.0591 133.145 28.5992 133.145 29.2649C133.145 29.7623 132.843 30.1868 132.416 30.3727C133.539 31.2495 134.951 31.7745 136.483 31.7745C138.634 31.7745 140.545 30.7445 141.756 29.1519C141.701 27.0844 140.013 25.4214 137.93 25.4214H129.866C129.904 26.3634 130.14 27.2552 130.535 28.0566H131.939V28.0591Z" fill="#112B43"/>
<path d="M130.535 28.0597H128.892C129.233 28.949 129.728 29.7629 130.341 30.4713H131.936C132.107 30.4713 132.268 30.4361 132.414 30.3733C131.625 29.7579 130.979 28.9665 130.532 28.0597H130.535Z" fill="#00A1DE"/>
<path d="M144.615 25.1507C144.615 20.6665 140.967 17.0215 136.486 17.0215C132.004 17.0215 128.354 20.6691 128.354 25.1507C128.354 25.2411 128.359 25.3315 128.362 25.422H129.869C129.866 25.3315 129.861 25.2411 129.861 25.1507C129.861 21.4981 132.833 18.5287 136.486 18.5287C140.138 18.5287 143.108 21.5006 143.108 25.1507C143.108 26.6529 142.605 28.0396 141.759 29.1524C141.759 29.1876 141.764 29.2203 141.764 29.2529V31.3254C143.507 29.8332 144.615 27.6175 144.615 25.1481V25.1507Z" fill="#00A1DE"/>
<path d="M130.535 28.0597C130.14 27.2583 129.907 26.3661 129.866 25.4241H128.359C128.389 26.3511 128.575 27.2382 128.892 28.0597H130.535Z" fill="#00A1DE"/>
<path d="M141.759 29.1523C140.548 30.745 138.636 31.7749 136.486 31.7749C134.953 31.7749 133.542 31.2499 132.419 30.3732C132.273 30.436 132.112 30.4711 131.941 30.4711H127.97C127.304 30.4711 126.764 29.931 126.764 29.2653C126.764 28.5996 127.304 28.0595 127.97 28.0595H128.897C128.58 27.2355 128.394 26.3488 128.364 25.4243H121.978C119.863 25.4243 118.147 27.1401 118.147 29.2553V55.0018C118.147 57.117 119.863 58.8328 121.978 58.8328H137.935C140.05 58.8328 141.766 57.117 141.766 55.0018V29.2553C141.766 29.2201 141.761 29.1874 141.761 29.1548L141.759 29.1523Z" fill="#072B45"/>
<path d="M138.204 46.1948H121.632V54.9897H138.204V46.1948Z" fill="#EBF3F8"/>
<path d="M138.204 35.0356H121.632V43.8305H138.204V35.0356Z" fill="#EBF3F8"/>
</g>
</svg>