<svg xmlns="http://www.w3.org/2000/svg" width="176" height="176" viewBox="0 0 176 176" fill="none">
<mask id="mask0_6519_861" style="mask-type:alpha" maskUnits="userSpaceOnUse" x="0" y="0" width="176" height="176">
<rect width="176" height="176" fill="#D9D9D9"/>
</mask>
<g mask="url(#mask0_6519_861)">
<rect width="142" height="142" rx="71" transform="matrix(1 0 0 -1 17.5 159)" fill="#C2DBEA"/>
<path d="M139 47H136V123H139V47Z" fill="#112B43"/>
<path d="M150.088 18H125.412C123.527 18 122 19.5204 122 21.3959V45.2135C122 47.089 123.527 48.6094 125.412 48.6094H150.088C151.973 48.6094 153.5 47.089 153.5 45.2135V21.3959C153.5 19.5204 151.973 18 150.088 18Z" fill="#E37222"/>
<path d="M129.651 43.5489V23.1707H137.464C138.979 23.1707 140.258 23.4201 141.301 23.9189C142.344 24.4177 143.131 25.1223 143.661 26.0271C144.192 26.9319 144.457 27.9846 144.457 29.1823C144.457 30.38 144.192 31.4675 143.661 32.3926C143.14 33.3061 142.35 34.0224 141.29 34.5415C140.238 35.0519 138.965 35.3042 137.467 35.3042H132.593V43.5489H129.651ZM137.223 32.7435C138.14 32.7435 138.918 32.6014 139.553 32.3201C140.189 32.0272 140.672 31.6183 141.001 31.0905C141.342 30.5627 141.514 29.9247 141.514 29.1823C141.514 28.4399 141.348 27.8483 141.016 27.3292C140.684 26.8101 140.197 26.4157 139.553 26.1402C138.91 25.8676 138.132 25.7313 137.223 25.7313H132.59V32.7464H137.223V32.7435Z" fill="white"/>
<path opacity="0.3" d="M92.5 130C119.286 130 141 129.105 141 128C141 126.895 119.286 126 92.5 126C65.7142 126 44 126.895 44 128C44 129.105 65.7142 130 92.5 130Z" fill="#072B45"/>
<path d="M33.9317 115.35H156.362C160.419 115.35 163.144 111.19 161.526 107.47L154.179 90.5859C153.284 88.531 151.254 87.1996 149.014 87.1996H138.872C137.008 87.1996 135.265 86.2777 134.217 84.7378L118.934 62.2946C117.884 60.7547 116.143 59.8328 114.279 59.8328H41.988C39.609 59.8328 37.4863 61.3275 36.685 63.5657L28.3297 86.8931C28.1036 87.5287 27.9906 88.1994 28.0006 88.8727L28.297 109.798C28.3397 112.878 30.8493 115.35 33.9292 115.35H33.9317Z" fill="#00A1DE"/>
<path d="M128.764 89.0058C128.673 88.8827 128.58 88.7621 128.492 88.634L114.957 68.7582C114.103 67.5047 112.686 66.7561 111.169 66.7561H86.0855C85.0178 66.7561 84.1537 67.6228 84.1537 68.6879V87.0715C84.1537 88.1391 85.0203 89.0033 86.0855 89.0033H128.761L128.764 89.0058Z" fill="#EBF3F8"/>
<path d="M46.1229 66.7561C44.1886 66.7561 42.4603 67.972 41.8096 69.7932L36.1976 85.4637C35.5796 87.1895 36.8583 89.0058 38.6921 89.0058H77.489C78.5567 89.0058 79.4209 88.1391 79.4209 87.074V68.6904C79.4209 67.6228 78.5542 66.7586 77.489 66.7586H46.1254L46.1229 66.7561Z" fill="#EBF3F8"/>
<path d="M55.4629 128.468C61.9407 128.468 67.1919 123.217 67.1919 116.739C67.1919 110.262 61.9407 105.01 55.4629 105.01C48.9852 105.01 43.7339 110.262 43.7339 116.739C43.7339 123.217 48.9852 128.468 55.4629 128.468Z" fill="#072B45"/>
<path d="M55.4629 121.775C52.687 121.775 50.4261 119.517 50.4261 116.739C50.4261 113.96 52.6845 111.702 55.4629 111.702C58.2413 111.702 60.4997 113.96 60.4997 116.739C60.4997 119.517 58.2413 121.775 55.4629 121.775Z" fill="#C2DBEA"/>
<path d="M130.788 128.468C137.266 128.468 142.517 123.217 142.517 116.739C142.517 110.262 137.266 105.01 130.788 105.01C124.311 105.01 119.059 110.262 119.059 116.739C119.059 123.217 124.311 128.468 130.788 128.468Z" fill="#072B45"/>
<path d="M130.788 121.776C128.012 121.776 125.752 119.518 125.752 116.74C125.752 113.961 128.01 111.703 130.788 111.703C133.567 111.703 135.825 113.961 135.825 116.74C135.825 119.518 133.567 121.776 130.788 121.776Z" fill="#C2DBEA"/>
<path d="M77.7905 92.5658H69.7292V94.5202H77.7905V92.5658Z" fill="#072B45"/>
<path d="M121.906 92.5658H113.844V94.5202H121.906V92.5658Z" fill="#072B45"/>
</g>
</svg>